<mxfile host="app.diagrams.net" modified="2021-10-19T23:26:40.484Z" agent="5.0 (Macintosh; Intel Mac OS X 10_15_7) AppleWebKit/537.36 (KHTML, like Gecko) Chrome/94.0.4606.81 Safari/537.36" etag="2rZWY7PYnvBnUIofbF3t" version="15.5.6" type="github">
  <diagram id="C5RBs43oDa-KdzZeNtuy" name="Page-1">
    <mxGraphModel dx="1351" dy="923" grid="1" gridSize="10" guides="1" tooltips="1" connect="1" arrows="1" fold="1" page="1" pageScale="1" pageWidth="1169" pageHeight="1654" math="0" shadow="0">
      <root>
        <mxCell id="WIyWlLk6GJQsqaUBKTNV-0" />
        <mxCell id="WIyWlLk6GJQsqaUBKTNV-1" parent="WIyWlLk6GJQsqaUBKTNV-0" />
        <mxCell id="Madp-EktR0fU7A6Jf47D-1" style="edgeStyle=orthogonalEdgeStyle;rounded=0;orthogonalLoop=1;jettySize=auto;html=1;entryX=0;entryY=0.5;entryDx=0;entryDy=0;fontColor=#FFFFFF;" parent="WIyWlLk6GJQsqaUBKTNV-1" source="WIyWlLk6GJQsqaUBKTNV-3" target="Madp-EktR0fU7A6Jf47D-0" edge="1">
          <mxGeometry relative="1" as="geometry" />
        </mxCell>
        <mxCell id="WIyWlLk6GJQsqaUBKTNV-3" value="&lt;font color=&quot;#ffffff&quot;&gt;Assign ticket to yourself from queue in Jira&lt;/font&gt;" style="rounded=1;whiteSpace=wrap;html=1;fontSize=12;glass=0;strokeWidth=1;shadow=0;fillColor=#FF8121;" parent="WIyWlLk6GJQsqaUBKTNV-1" vertex="1">
          <mxGeometry x="170" y="70" width="120" height="50" as="geometry" />
        </mxCell>
        <mxCell id="6Gb9cG1hv3drvlyO0GPC-1" style="edgeStyle=orthogonalEdgeStyle;rounded=0;orthogonalLoop=1;jettySize=auto;html=1;fontColor=#000000;" edge="1" parent="WIyWlLk6GJQsqaUBKTNV-1" source="Madp-EktR0fU7A6Jf47D-0" target="6Gb9cG1hv3drvlyO0GPC-0">
          <mxGeometry relative="1" as="geometry" />
        </mxCell>
        <mxCell id="Madp-EktR0fU7A6Jf47D-0" value="&lt;span data-lucid-type=&quot;application/vnd.lucid.text&quot; data-lucid-content=&quot;{&amp;#34;t&amp;#34;:&amp;#34;Transition from \&amp;#34;to do\&amp;#34; =&amp;gt; \&amp;#34;In Progress\&amp;#34;&amp;#34;,&amp;#34;m&amp;#34;:[{&amp;#34;s&amp;#34;:0,&amp;#34;n&amp;#34;:&amp;#34;fc&amp;#34;,&amp;#34;v&amp;#34;:&amp;#34;Regular&amp;#34;,&amp;#34;e&amp;#34;:40},{&amp;#34;s&amp;#34;:0,&amp;#34;n&amp;#34;:&amp;#34;fid&amp;#34;,&amp;#34;v&amp;#34;:2,&amp;#34;e&amp;#34;:40},{&amp;#34;s&amp;#34;:0,&amp;#34;n&amp;#34;:&amp;#34;c&amp;#34;,&amp;#34;v&amp;#34;:&amp;#34;#ffffffff&amp;#34;,&amp;#34;e&amp;#34;:40}]}&quot;&gt;&lt;span style=&quot;color: #ffffff&quot;&gt;Transition from &quot;to do&quot; =&amp;gt; &quot;In Progress&quot;&lt;/span&gt;&lt;/span&gt;" style="rounded=1;whiteSpace=wrap;html=1;fontSize=12;glass=0;strokeWidth=1;shadow=0;fillColor=#FF8000;" parent="WIyWlLk6GJQsqaUBKTNV-1" vertex="1">
          <mxGeometry x="320" y="70" width="120" height="50" as="geometry" />
        </mxCell>
        <mxCell id="Madp-EktR0fU7A6Jf47D-2" value="" style="rounded=1;whiteSpace=wrap;html=1;fontColor=#FFFFFF;fillColor=#FFFFFF;" parent="WIyWlLk6GJQsqaUBKTNV-1" vertex="1">
          <mxGeometry x="10" y="40" width="90" height="70" as="geometry" />
        </mxCell>
        <mxCell id="Madp-EktR0fU7A6Jf47D-3" value="Developer" style="rounded=1;whiteSpace=wrap;html=1;fontColor=#FFFFFF;fillColor=#FF8000;" parent="WIyWlLk6GJQsqaUBKTNV-1" vertex="1">
          <mxGeometry x="19" y="50" width="70" height="20" as="geometry" />
        </mxCell>
        <mxCell id="Madp-EktR0fU7A6Jf47D-4" value="Reviewer" style="rounded=1;whiteSpace=wrap;html=1;fontColor=#FFFFFF;fillColor=#00994D;" parent="WIyWlLk6GJQsqaUBKTNV-1" vertex="1">
          <mxGeometry x="19" y="80" width="70" height="20" as="geometry" />
        </mxCell>
        <mxCell id="Madp-EktR0fU7A6Jf47D-6" value="Keys" style="text;html=1;resizable=0;autosize=1;align=center;verticalAlign=middle;points=[];fillColor=none;strokeColor=none;rounded=0;fontColor=#000000;shadow=0;" parent="WIyWlLk6GJQsqaUBKTNV-1" vertex="1">
          <mxGeometry x="12" y="18" width="40" height="20" as="geometry" />
        </mxCell>
        <mxCell id="6Gb9cG1hv3drvlyO0GPC-6" value="" style="edgeStyle=orthogonalEdgeStyle;rounded=0;orthogonalLoop=1;jettySize=auto;html=1;fontSize=10;fontColor=#000000;align=center;" edge="1" parent="WIyWlLk6GJQsqaUBKTNV-1" source="6Gb9cG1hv3drvlyO0GPC-0" target="6Gb9cG1hv3drvlyO0GPC-4">
          <mxGeometry relative="1" as="geometry" />
        </mxCell>
        <mxCell id="6Gb9cG1hv3drvlyO0GPC-0" value="&lt;span data-lucid-type=&quot;application/vnd.lucid.text&quot; data-lucid-content=&quot;{&amp;#34;t&amp;#34;:&amp;#34;Create a local branch off of main naming it in reference to the ticket number&amp;#34;,&amp;#34;m&amp;#34;:[{&amp;#34;s&amp;#34;:0,&amp;#34;n&amp;#34;:&amp;#34;c&amp;#34;,&amp;#34;v&amp;#34;:&amp;#34;#ffffffff&amp;#34;,&amp;#34;e&amp;#34;:77},{&amp;#34;s&amp;#34;:0,&amp;#34;n&amp;#34;:&amp;#34;fc&amp;#34;,&amp;#34;v&amp;#34;:&amp;#34;Regular&amp;#34;,&amp;#34;e&amp;#34;:77},{&amp;#34;s&amp;#34;:0,&amp;#34;n&amp;#34;:&amp;#34;fid&amp;#34;,&amp;#34;v&amp;#34;:2,&amp;#34;e&amp;#34;:77},{&amp;#34;s&amp;#34;:0,&amp;#34;n&amp;#34;:&amp;#34;s&amp;#34;,&amp;#34;v&amp;#34;:15.777777777777773,&amp;#34;e&amp;#34;:77}]}&quot;&gt;&lt;span style=&quot;color: #ffffff ; font-size: 11.83333333333333px&quot;&gt;Create a local branch off of main naming it in the format `initals_ticketId`&lt;br&gt;ex: sz_TT257&lt;br&gt;&lt;/span&gt;&lt;/span&gt;" style="rounded=1;whiteSpace=wrap;html=1;fontSize=12;glass=0;strokeWidth=1;shadow=0;fillColor=#FF8000;" vertex="1" parent="WIyWlLk6GJQsqaUBKTNV-1">
          <mxGeometry x="470" y="57" width="120" height="75" as="geometry" />
        </mxCell>
        <mxCell id="6Gb9cG1hv3drvlyO0GPC-7" value="" style="edgeStyle=orthogonalEdgeStyle;rounded=0;orthogonalLoop=1;jettySize=auto;html=1;fontSize=10;fontColor=#000000;align=center;" edge="1" parent="WIyWlLk6GJQsqaUBKTNV-1" source="6Gb9cG1hv3drvlyO0GPC-4" target="6Gb9cG1hv3drvlyO0GPC-5">
          <mxGeometry relative="1" as="geometry" />
        </mxCell>
        <mxCell id="6Gb9cG1hv3drvlyO0GPC-4" value="&lt;span data-lucid-type=&quot;application/vnd.lucid.text&quot; data-lucid-content=&quot;{&amp;#34;t&amp;#34;:&amp;#34;Complete ticket requirements to the best of your ability, commiting often&amp;#34;,&amp;#34;m&amp;#34;:[{&amp;#34;s&amp;#34;:0,&amp;#34;n&amp;#34;:&amp;#34;fc&amp;#34;,&amp;#34;v&amp;#34;:&amp;#34;Regular&amp;#34;,&amp;#34;e&amp;#34;:73},{&amp;#34;s&amp;#34;:0,&amp;#34;n&amp;#34;:&amp;#34;fid&amp;#34;,&amp;#34;v&amp;#34;:2,&amp;#34;e&amp;#34;:73},{&amp;#34;s&amp;#34;:0,&amp;#34;n&amp;#34;:&amp;#34;c&amp;#34;,&amp;#34;v&amp;#34;:&amp;#34;#ffffffff&amp;#34;,&amp;#34;e&amp;#34;:73}]}&quot;&gt;&lt;font color=&quot;#ffffff&quot;&gt;Complete ticket requirements to the best of your ability, committing&amp;nbsp;often&lt;/font&gt;&lt;/span&gt;" style="rounded=1;whiteSpace=wrap;html=1;fontSize=12;glass=0;strokeWidth=1;shadow=0;fillColor=#FF8000;" vertex="1" parent="WIyWlLk6GJQsqaUBKTNV-1">
          <mxGeometry x="620" y="65" width="120" height="60" as="geometry" />
        </mxCell>
        <mxCell id="6Gb9cG1hv3drvlyO0GPC-9" value="" style="edgeStyle=orthogonalEdgeStyle;rounded=0;orthogonalLoop=1;jettySize=auto;html=1;fontSize=10;fontColor=#000000;align=center;" edge="1" parent="WIyWlLk6GJQsqaUBKTNV-1" source="6Gb9cG1hv3drvlyO0GPC-5" target="6Gb9cG1hv3drvlyO0GPC-8">
          <mxGeometry relative="1" as="geometry" />
        </mxCell>
        <UserObject label="&lt;span data-lucid-type=&quot;application/vnd.lucid.text&quot; data-lucid-content=&quot;{&amp;#34;t&amp;#34;:&amp;#34;Create PR and assign two members of team to review&amp;#34;,&amp;#34;m&amp;#34;:[{&amp;#34;s&amp;#34;:0,&amp;#34;n&amp;#34;:&amp;#34;fc&amp;#34;,&amp;#34;v&amp;#34;:&amp;#34;Regular&amp;#34;,&amp;#34;e&amp;#34;:50},{&amp;#34;s&amp;#34;:0,&amp;#34;n&amp;#34;:&amp;#34;fid&amp;#34;,&amp;#34;v&amp;#34;:2,&amp;#34;e&amp;#34;:50},{&amp;#34;s&amp;#34;:0,&amp;#34;n&amp;#34;:&amp;#34;c&amp;#34;,&amp;#34;v&amp;#34;:&amp;#34;#ffffffff&amp;#34;,&amp;#34;e&amp;#34;:50}]}&quot;&gt;&lt;span style=&quot;color: #ffffff&quot;&gt;Create PR to main and assign two members of team to review&lt;/span&gt;&lt;/span&gt;" link="https://raw.githubusercontent.com/smzajac/draw-diagrams/main/assignees.png" linkTarget="_blank" id="6Gb9cG1hv3drvlyO0GPC-5">
          <mxCell style="rounded=1;whiteSpace=wrap;html=1;fontSize=12;glass=0;strokeWidth=1;shadow=0;fillColor=#FF8000;" vertex="1" parent="WIyWlLk6GJQsqaUBKTNV-1">
            <mxGeometry x="770" y="65" width="120" height="60" as="geometry" />
          </mxCell>
        </UserObject>
        <mxCell id="6Gb9cG1hv3drvlyO0GPC-11" value="Needs Changes" style="edgeStyle=orthogonalEdgeStyle;rounded=0;orthogonalLoop=1;jettySize=auto;html=1;fontSize=10;fontColor=#000000;align=center;" edge="1" parent="WIyWlLk6GJQsqaUBKTNV-1" source="6Gb9cG1hv3drvlyO0GPC-8" target="6Gb9cG1hv3drvlyO0GPC-10">
          <mxGeometry x="0.0513" y="18" relative="1" as="geometry">
            <mxPoint y="1" as="offset" />
          </mxGeometry>
        </mxCell>
        <mxCell id="6Gb9cG1hv3drvlyO0GPC-13" value="Approved" style="edgeStyle=orthogonalEdgeStyle;rounded=0;orthogonalLoop=1;jettySize=auto;html=1;fontSize=10;fontColor=#000000;align=center;" edge="1" parent="WIyWlLk6GJQsqaUBKTNV-1">
          <mxGeometry y="-17" relative="1" as="geometry">
            <mxPoint x="980" y="122" as="sourcePoint" />
            <mxPoint x="848" y="207" as="targetPoint" />
            <Array as="points">
              <mxPoint x="980" y="167" />
              <mxPoint x="848" y="167" />
            </Array>
            <mxPoint y="-1" as="offset" />
          </mxGeometry>
        </mxCell>
        <mxCell id="6Gb9cG1hv3drvlyO0GPC-8" value="&lt;font color=&quot;#ffffff&quot;&gt;Review committed&amp;nbsp;code&lt;/font&gt;" style="rounded=1;whiteSpace=wrap;html=1;fontSize=12;glass=0;strokeWidth=1;shadow=0;fillColor=#00994D;" vertex="1" parent="WIyWlLk6GJQsqaUBKTNV-1">
          <mxGeometry x="920" y="65" width="120" height="60" as="geometry" />
        </mxCell>
        <mxCell id="6Gb9cG1hv3drvlyO0GPC-20" value="" style="edgeStyle=orthogonalEdgeStyle;rounded=0;orthogonalLoop=1;jettySize=auto;html=1;fontSize=10;fontColor=#000000;align=center;" edge="1" parent="WIyWlLk6GJQsqaUBKTNV-1" source="6Gb9cG1hv3drvlyO0GPC-10" target="6Gb9cG1hv3drvlyO0GPC-19">
          <mxGeometry relative="1" as="geometry" />
        </mxCell>
        <mxCell id="6Gb9cG1hv3drvlyO0GPC-10" value="&lt;font color=&quot;#ffffff&quot;&gt;&amp;nbsp;Submit Feedback and remove yourself as assignee&lt;/font&gt;" style="rounded=1;whiteSpace=wrap;html=1;fontSize=12;glass=0;strokeWidth=1;shadow=0;fillColor=#00994D;" vertex="1" parent="WIyWlLk6GJQsqaUBKTNV-1">
          <mxGeometry x="1007" y="210" width="120" height="60" as="geometry" />
        </mxCell>
        <mxCell id="6Gb9cG1hv3drvlyO0GPC-16" value="" style="edgeStyle=orthogonalEdgeStyle;rounded=0;orthogonalLoop=1;jettySize=auto;html=1;fontSize=10;fontColor=#000000;align=center;" edge="1" parent="WIyWlLk6GJQsqaUBKTNV-1" source="6Gb9cG1hv3drvlyO0GPC-12" target="6Gb9cG1hv3drvlyO0GPC-15">
          <mxGeometry relative="1" as="geometry" />
        </mxCell>
        <mxCell id="6Gb9cG1hv3drvlyO0GPC-12" value="&lt;font color=&quot;#ffffff&quot;&gt;Mark as approved&lt;/font&gt;" style="rounded=1;whiteSpace=wrap;html=1;fontSize=12;glass=0;strokeWidth=1;shadow=0;fillColor=#00994D;" vertex="1" parent="WIyWlLk6GJQsqaUBKTNV-1">
          <mxGeometry x="788" y="210" width="120" height="60" as="geometry" />
        </mxCell>
        <mxCell id="6Gb9cG1hv3drvlyO0GPC-18" value="&amp;nbsp;IF you are&lt;br&gt;&amp;nbsp;final reviewer&lt;br&gt;AND&lt;br&gt;all other&lt;br&gt;reviewers&lt;br&gt;also approved" style="edgeStyle=orthogonalEdgeStyle;rounded=0;orthogonalLoop=1;jettySize=auto;html=1;fontSize=10;fontColor=#000000;align=center;dashed=1;exitX=0;exitY=0.5;exitDx=0;exitDy=0;" edge="1" parent="WIyWlLk6GJQsqaUBKTNV-1" source="6Gb9cG1hv3drvlyO0GPC-15">
          <mxGeometry x="0.0036" y="-10" relative="1" as="geometry">
            <mxPoint x="604" y="239.58" as="sourcePoint" />
            <mxPoint x="524" y="239.58" as="targetPoint" />
            <mxPoint as="offset" />
          </mxGeometry>
        </mxCell>
        <mxCell id="6Gb9cG1hv3drvlyO0GPC-15" value="&lt;font color=&quot;#ffffff&quot;&gt;Remove yourself as reviewer&lt;/font&gt;" style="rounded=1;whiteSpace=wrap;html=1;fontSize=12;glass=0;strokeWidth=1;shadow=0;fillColor=#00994D;" vertex="1" parent="WIyWlLk6GJQsqaUBKTNV-1">
          <mxGeometry x="640" y="210" width="120" height="60" as="geometry" />
        </mxCell>
        <mxCell id="6Gb9cG1hv3drvlyO0GPC-33" value="" style="edgeStyle=orthogonalEdgeStyle;rounded=0;orthogonalLoop=1;jettySize=auto;html=1;fontSize=10;fontColor=#000000;align=center;" edge="1" parent="WIyWlLk6GJQsqaUBKTNV-1" source="6Gb9cG1hv3drvlyO0GPC-17" target="6Gb9cG1hv3drvlyO0GPC-32">
          <mxGeometry relative="1" as="geometry" />
        </mxCell>
        <mxCell id="6Gb9cG1hv3drvlyO0GPC-17" value="&lt;font color=&quot;#ffffff&quot;&gt;Move ticket status from in progress to &quot;Ready for Deployment&quot; in Jira&lt;br&gt;AND&lt;br&gt;Reassign ticket to Developer&lt;br&gt;&lt;/font&gt;" style="rounded=1;whiteSpace=wrap;html=1;fontSize=12;glass=0;strokeWidth=1;shadow=0;fillColor=#00994D;" vertex="1" parent="WIyWlLk6GJQsqaUBKTNV-1">
          <mxGeometry x="404" y="190" width="120" height="110" as="geometry" />
        </mxCell>
        <mxCell id="6Gb9cG1hv3drvlyO0GPC-22" value="" style="edgeStyle=orthogonalEdgeStyle;rounded=0;orthogonalLoop=1;jettySize=auto;html=1;dashed=1;fontSize=10;fontColor=#000000;align=center;" edge="1" parent="WIyWlLk6GJQsqaUBKTNV-1" source="6Gb9cG1hv3drvlyO0GPC-19" target="6Gb9cG1hv3drvlyO0GPC-21">
          <mxGeometry relative="1" as="geometry" />
        </mxCell>
        <mxCell id="6Gb9cG1hv3drvlyO0GPC-25" value="" style="edgeStyle=orthogonalEdgeStyle;rounded=0;orthogonalLoop=1;jettySize=auto;html=1;fontSize=10;fontColor=#000000;align=center;" edge="1" parent="WIyWlLk6GJQsqaUBKTNV-1" source="6Gb9cG1hv3drvlyO0GPC-19" target="6Gb9cG1hv3drvlyO0GPC-21">
          <mxGeometry relative="1" as="geometry" />
        </mxCell>
        <mxCell id="6Gb9cG1hv3drvlyO0GPC-19" value="&lt;font color=&quot;#ffffff&quot;&gt;Move Ticket to &quot;Needs Changes&quot; in Jira&lt;/font&gt;" style="rounded=1;whiteSpace=wrap;html=1;fontSize=12;glass=0;strokeWidth=1;shadow=0;fillColor=#00994D;" vertex="1" parent="WIyWlLk6GJQsqaUBKTNV-1">
          <mxGeometry x="1007" y="300" width="120" height="60" as="geometry" />
        </mxCell>
        <mxCell id="6Gb9cG1hv3drvlyO0GPC-24" value="" style="edgeStyle=orthogonalEdgeStyle;rounded=0;orthogonalLoop=1;jettySize=auto;html=1;fontSize=10;fontColor=#000000;align=center;" edge="1" parent="WIyWlLk6GJQsqaUBKTNV-1" source="6Gb9cG1hv3drvlyO0GPC-21" target="6Gb9cG1hv3drvlyO0GPC-23">
          <mxGeometry relative="1" as="geometry" />
        </mxCell>
        <mxCell id="6Gb9cG1hv3drvlyO0GPC-21" value="&lt;font color=&quot;#ffffff&quot;&gt;Update ticket accordingly and update to &quot;Changes Addressed&quot; in Jira&lt;/font&gt;" style="rounded=1;whiteSpace=wrap;html=1;fontSize=12;glass=0;strokeWidth=1;shadow=0;fillColor=#FF8000;" vertex="1" parent="WIyWlLk6GJQsqaUBKTNV-1">
          <mxGeometry x="1007" y="390" width="120" height="60" as="geometry" />
        </mxCell>
        <mxCell id="6Gb9cG1hv3drvlyO0GPC-27" style="edgeStyle=orthogonalEdgeStyle;rounded=0;orthogonalLoop=1;jettySize=auto;html=1;fontSize=10;fontColor=#000000;align=center;" edge="1" parent="WIyWlLk6GJQsqaUBKTNV-1" source="6Gb9cG1hv3drvlyO0GPC-23" target="6Gb9cG1hv3drvlyO0GPC-26">
          <mxGeometry relative="1" as="geometry" />
        </mxCell>
        <mxCell id="6Gb9cG1hv3drvlyO0GPC-23" value="&lt;font color=&quot;#ffffff&quot;&gt;assign to reviewer who requested changes&lt;/font&gt;" style="rounded=1;whiteSpace=wrap;html=1;fontSize=12;glass=0;strokeWidth=1;shadow=0;fillColor=#FF8000;" vertex="1" parent="WIyWlLk6GJQsqaUBKTNV-1">
          <mxGeometry x="1007" y="480" width="120" height="60" as="geometry" />
        </mxCell>
        <mxCell id="6Gb9cG1hv3drvlyO0GPC-28" value="Approved" style="edgeStyle=orthogonalEdgeStyle;rounded=0;orthogonalLoop=1;jettySize=auto;html=1;entryX=0.5;entryY=1;entryDx=0;entryDy=0;fontSize=10;fontColor=#000000;align=center;" edge="1" parent="WIyWlLk6GJQsqaUBKTNV-1" source="6Gb9cG1hv3drvlyO0GPC-26" target="6Gb9cG1hv3drvlyO0GPC-12">
          <mxGeometry x="0.096" y="-13" relative="1" as="geometry">
            <mxPoint as="offset" />
          </mxGeometry>
        </mxCell>
        <mxCell id="6Gb9cG1hv3drvlyO0GPC-31" value="Needs Changes" style="edgeStyle=orthogonalEdgeStyle;rounded=0;orthogonalLoop=1;jettySize=auto;html=1;fontSize=10;fontColor=#000000;align=center;entryX=0;entryY=0.5;entryDx=0;entryDy=0;" edge="1" parent="WIyWlLk6GJQsqaUBKTNV-1" source="6Gb9cG1hv3drvlyO0GPC-26" target="6Gb9cG1hv3drvlyO0GPC-10">
          <mxGeometry x="0.5179" y="10" relative="1" as="geometry">
            <mxPoint x="960" y="240" as="targetPoint" />
            <Array as="points">
              <mxPoint x="928" y="240" />
            </Array>
            <mxPoint as="offset" />
          </mxGeometry>
        </mxCell>
        <mxCell id="6Gb9cG1hv3drvlyO0GPC-26" value="&lt;font color=&quot;#ffffff&quot;&gt;review changes&lt;/font&gt;" style="rounded=1;whiteSpace=wrap;html=1;fontSize=12;glass=0;strokeWidth=1;shadow=0;fillColor=#00994D;" vertex="1" parent="WIyWlLk6GJQsqaUBKTNV-1">
          <mxGeometry x="868" y="356" width="120" height="60" as="geometry" />
        </mxCell>
        <mxCell id="6Gb9cG1hv3drvlyO0GPC-32" value="&lt;font color=&quot;#ffffff&quot;&gt;Merge ticket into branch AND transition to &quot;Done&quot; in Jira&amp;nbsp;&lt;br&gt;Yayyy!!!! :D&lt;br&gt;&lt;/font&gt;" style="rounded=1;whiteSpace=wrap;html=1;fontSize=12;glass=0;strokeWidth=1;shadow=0;fillColor=#FF8000;" vertex="1" parent="WIyWlLk6GJQsqaUBKTNV-1">
          <mxGeometry x="248" y="210" width="120" height="60" as="geometry" />
        </mxCell>
      </root>
    </mxGraphModel>
  </diagram>
</mxfile>
